<svg viewBox="0 0 512 512" xmlns="http://www.w3.org/2000/svg"><path d="m368 496v-80h80v-104a55.99725 55.99725 0 0 0 -55.99676-56h-272.00324a56 56 0 0 0 -56 56v104h80v80z" fill="#548aff"/><path d="m304 184v72a48 48 0 0 1 -96 0v-72z" fill="#ffceb6"/><path d="m304 184v72a47.8755 47.8755 0 0 1 -5.81 22.91992 88.02482 88.02482 0 0 1 -74.19-86.91992v-8z" fill="#ffbfa1"/><path d="m208 184a72 72 0 0 0 72 72h48v-144h-120z" fill="#ffceb6"/><path d="m208 112v56l84-56z" fill="#c78640"/><path d="m208 80h160v32h-160z" fill="#cdf4f7"/><path d="m248 112 80 160h40v-160z" fill="#9ce6ed"/><path d="m208 80a34.26477 34.26477 0 0 1 22.555-32.20181l50.4083-18.33029a90.8187 90.8187 0 0 1 31.0367-5.4679h.00008a55.99994 55.99994 0 0 1 55.99992 55.99994z" fill="#c78640"/><path d="m64 416h80v80h-80z" fill="#ffceb6"/><path d="m144 416h-16v-48a8 8 0 0 1 8-8 8 8 0 0 1 8 8z" fill="#4f7ff7"/><path d="m384 416h-16v-48a8 8 0 0 1 8-8 8 8 0 0 1 8 8z" fill="#4f7ff7"/><path d="m368 416h80v80h-80z" fill="#ffceb6"/></svg>