<svg viewBox="0 0 512 512" xmlns="http://www.w3.org/2000/svg"><g><g><path d="m497.949 360.261c-1.004-.873-1.33-2.288-.8-3.508 2.462-5.665 3.682-11.993 3.295-18.648-1.168-20.098-17.226-36.553-37.287-38.235-3.75-.314-7.4-.107-10.894.543-1.946.362-3.719-1.18-3.603-3.156.057-.97.086-1.946.086-2.93 0-29.539-24.517-53.351-54.312-52.2-8.587.332-16.664 2.778-23.725 6.827-14 8.028-29.827 12.324-45.965 12.324h-58.079c-50.503 0-91.551-40.735-91.939-91.236 1.553-31.15-24.194-56.699-55.411-54.816-26.043 1.57-47.154 22.559-48.884 48.591-.403 6.072.237 11.937 1.754 17.44.556 2.016-1.038 3.945-3.127 3.84-.672-.034-1.348-.051-2.029-.051-22.533 0-40.8 18.267-40.8 40.801 0 16.457 9.745 30.634 23.777 37.085 1.638.753 2.217 2.759 1.316 4.32-3.722 6.45-6.106 13.77-6.771 21.58-.007.082-.014.169-.02.26-.187 2.578-2.005 4.752-4.507 5.401l-.044.011c-23.002 6.009-39.98 26.916-39.98 51.801v31.968c0 29.811 24.166 53.977 53.977 53.977h18.582 381.386s8.203 0 17.502-.4c21.994-.945 40.553-18.343 40.553-40.794 0-12.297-5.446-23.315-14.051-30.795z" fill="#95d6a4"/></g><g><path d="m497.949 360.261c-1.004-.873-1.33-2.288-.8-3.508 2.461-5.665 3.682-11.993 3.295-18.648-1.168-20.098-17.226-36.553-37.287-38.235-3.75-.314-7.4-.107-10.894.543-1.946.362-3.719-1.18-3.603-3.156.057-.97.086-1.946.086-2.93 0-29.539-24.517-53.351-54.312-52.199-6.977.27-13.606 1.955-19.638 4.742 22.285 5.966 38.7 26.29 38.7 50.458 0 .984-.03 1.961-.086 2.93-.115 1.976 1.658 3.518 3.603 3.156 3.494-.65 7.144-.857 10.894-.543 20.061 1.681 36.119 18.137 37.287 38.235.387 6.655-.833 12.983-3.295 18.648-.53 1.22-.204 2.635.8 3.508 8.605 7.479 14.051 18.498 14.051 30.795 0 17.814-11.69 32.438-27.504 38.194h4.699s8.203 0 17.502-.4c21.994-.946 40.553-18.344 40.553-40.795 0-12.297-5.446-23.315-14.051-30.795z" fill="#78c2a4"/></g><g><path d="m377.737 178.173h-11.691c-6.01 0-10.883-4.872-10.883-10.883 0-54.994-44.581-99.575-99.575-99.575-54.994 0-99.575 44.581-99.575 99.575 0 6.01-4.872 10.883-10.883 10.883h-11.69c-11.254 0-20.377 9.123-20.377 20.377v194.813h285.051v-194.813c0-11.254-9.123-20.377-20.377-20.377z" fill="#e7ecf6"/></g><g><path d="m377.737 178.173h-11.691c-6.01 0-10.883-4.872-10.883-10.883 0-54.994-44.581-99.575-99.575-99.575-16.862 0-32.741 4.197-46.66 11.594.969-.028 1.941-.046 2.917-.046 54.994 0 99.575 44.581 99.575 99.575 0 6.01 4.872 10.883 10.883 10.883h11.691c11.254 0 20.377 9.123 20.377 20.377v183.265h43.743v-194.813c0-11.254-9.123-20.377-20.377-20.377z" fill="#d8e2f1"/></g><g><path d="m311.743 208.654h-35.905c-1.688 0-3.057-1.368-3.057-3.057v-47.567c0-1.688-1.368-3.057-3.057-3.057h-28.273c-1.688 0-3.057 1.368-3.057 3.057v47.567c0 1.688-1.368 3.057-3.057 3.057h-35.905c-1.688 0-3.057 1.368-3.057 3.057v28.273c0 1.688 1.368 3.057 3.057 3.057h35.905c1.688 0 3.057 1.368 3.057 3.057v63.523c0 1.688 1.368 3.056 3.057 3.056h28.273c1.688 0 3.057-1.368 3.057-3.056v-63.523c0-1.688 1.368-3.057 3.057-3.057h35.905c1.688 0 3.057-1.368 3.057-3.057v-28.274c0-1.688-1.369-3.056-3.057-3.056z" fill="#4a80aa"/></g><g><path d="m311.743 208.654h-35.905c-1.688 0-3.057-1.368-3.057-3.057v-47.567c0-1.688-1.368-3.057-3.057-3.057h-28.273c-1.688 0-3.057 1.368-3.057 3.057v47.567c0 1.688-1.368 3.057-3.057 3.057h-35.905c-1.688 0-3.057 1.368-3.057 3.057v28.273c0 1.688 1.368 3.057 3.057 3.057h35.905c1.688 0 3.057 1.368 3.057 3.057v63.523c0 1.688 1.368 3.056 3.057 3.056h28.273c1.688 0 3.057-1.368 3.057-3.056v-63.523c0-1.688 1.368-3.057 3.057-3.057h35.905c1.688 0 3.057-1.368 3.057-3.057v-28.274c0-1.688-1.369-3.056-3.057-3.056z" fill="#b9cbea"/></g><g><path d="m433.689 432.25h-356.2c-2.761 0-5-2.239-5-5v-45.847c0-2.761 2.239-5 5-5h356.2c2.761 0 5 2.239 5 5v45.847c0 2.762-2.239 5-5 5z" fill="#e7ecf6"/></g><g><path d="m433.689 376.403h-17.103v28.65c0 2.813-2.281 5.094-5.094 5.094h-339.003v17.103c0 2.761 2.239 5 5 5h356.2c2.761 0 5-2.239 5-5v-45.847c0-2.761-2.239-5-5-5z" fill="#d8e2f1"/></g><g><path d="m263.214 386.846c-4.53-.524-8.926-.291-13.091.574-2.256.469-4.414-1.03-4.784-3.304-3.152-19.398-19.981-34.206-40.269-34.206-22.533 0-40.8 18.267-40.8 40.8v10.53c0 1.935-1.394 3.553-3.292 3.932-16.929 3.384-30.069 17.241-32.385 34.531-.325 2.429 1.6 4.582 4.051 4.582h160.181c1.681 0 3.211-1.023 3.802-2.596 2.066-5.499 2.985-11.557 2.442-17.893-1.644-19.152-16.76-34.742-35.855-36.95z" fill="#95d6a4"/></g><g><path d="m299.068 423.796c-1.643-19.152-16.759-34.742-35.855-36.95-4.53-.524-8.926-.292-13.091.574-2.256.469-4.414-1.03-4.784-3.305-3.152-19.398-19.981-34.206-40.269-34.206-12.244 0-23.219 5.4-30.698 13.941.299-.006.596-.023.897-.023 20.288 0 37.117 14.808 40.269 34.206.37 2.275 2.527 3.773 4.784 3.305 4.165-.865 8.562-1.097 13.091-.574 19.095 2.208 34.211 17.798 35.855 36.95.191 2.23.192 4.422.034 6.571h23.522c1.681 0 3.211-1.023 3.802-2.596 2.067-5.498 2.987-11.557 2.443-17.893z" fill="#78c2a4"/></g></g></svg>