<svg height="512" viewBox="0 0 512 512" width="512" xmlns="http://www.w3.org/2000/svg"><g id="Aviod_Shopping_Malls" data-name="Aviod Shopping Malls"><g id="Flat"><path d="m136 128h-72v-72a8 8 0 0 1 8-8h64z" fill="#bce7f7"/><path d="m448 128h-72v-80h64a8 8 0 0 1 8 8z" fill="#bce7f7"/><path d="m406 48h-30v80h72v-33.6a88.318 88.318 0 0 1 -42-46.4z" fill="#a7d9e8"/><path d="m114 48a88.278 88.278 0 0 1 -50 50v30h72v-80z" fill="#a7d9e8"/><path d="m376 80h72v16h-72z" fill="#93cbd8"/><path d="m64 80h72v16h-72z" fill="#93cbd8"/><path d="m392 128h-271v-120a8 8 0 0 1 8-8h255a8 8 0 0 1 8 8z" fill="#bce7f7"/><path d="m384 0h-46.191a236.533 236.533 0 0 1 -152.722 128h206.913v-120a8 8 0 0 0 -8-8z" fill="#a7d9e8"/><path d="m192 128a8 8 0 0 1 -8-8v-112a8 8 0 0 1 16 0v112a8 8 0 0 1 -8 8z" fill="#93cbd8"/><path d="m256 128a8 8 0 0 1 -8-8v-112a8 8 0 0 1 16 0v112a8 8 0 0 1 -8 8z" fill="#93cbd8"/><path d="m320 128a8 8 0 0 1 -8-8v-112a8 8 0 0 1 16 0v112a8 8 0 0 1 -8 8z" fill="#93cbd8"/><path d="m472 120v136h-432v-136a8 8 0 0 1 8-8h416a8 8 0 0 1 8 8z" fill="#a6d96b"/><path d="m464 112h-162.339a268.577 268.577 0 0 1 -176.476 144h346.815v-136a8 8 0 0 0 -8-8z" fill="#87ba50"/><path d="m496 512h-480v-264a8 8 0 0 1 8-8h464a8 8 0 0 1 8 8z" fill="#bce7f7"/><path d="m488 240h-125.789c-68.611 126.023-196.495 215.112-346.211 229.841v42.159h480v-264a8 8 0 0 0 -8-8z" fill="#a7d9e8"/><path d="m360 512h-208v-88a8 8 0 0 1 8-8h192a8 8 0 0 1 8 8z" fill="#9ba3d1"/><path d="m352 416h-77.885a204.773 204.773 0 0 1 -102.786 96h188.671v-88a8 8 0 0 0 -8-8z" fill="#8a95c4"/><path d="m40 152h432v16h-432z" fill="#73b03e"/><path d="m40 200h432v16h-432z" fill="#73b03e"/><path d="m16 288h480v16h-480z" fill="#93cbd8"/><path d="m16 336h480v16h-480z" fill="#93cbd8"/><path d="m16 384h480v16h-480z" fill="#93cbd8"/><path d="m144 158.131c-15.314-13.731-40-2.944-40 17.869v32a8 8 0 0 0 16 0v-32a8 8 0 0 1 16 0v32a8 8 0 0 0 16 0v-32a8 8 0 0 1 16 0v32a8 8 0 0 0 16 0v-32c0-20.813-24.685-31.6-40-17.869z" fill="#fff"/><path d="m232 152a32.036 32.036 0 0 0 -32 32v24a8 8 0 0 0 16 0v-8h32v8a8 8 0 0 0 16 0v-24a32.036 32.036 0 0 0 -32-32zm-16 32a16 16 0 0 1 32 0z" fill="#fff"/><path d="m328 200h-32v-40a8 8 0 0 0 -16 0v48a8 8 0 0 0 8 8h40a8 8 0 0 0 0-16z" fill="#fff"/><path d="m400 200h-32v-40a8 8 0 0 0 -16 0v48a8 8 0 0 0 8 8h40a8 8 0 0 0 0-16z" fill="#fff"/><path d="m248 416h16v96h-16z" fill="#7987b2"/><path d="m136 512h-56v-88a8 8 0 0 1 8-8h40a8 8 0 0 1 8 8z" fill="#9ba3d1"/><path d="m80 474.3v37.7h56v-77.35a116.2 116.2 0 0 1 -56 39.65z" fill="#8a95c4"/><path d="m504 512h-496a8 8 0 0 1 0-16h496a8 8 0 0 1 0 16z" fill="#7987b2"/><path d="m481.113 512h-162.226a30.529 30.529 0 0 1 -25.908-14.5 32.268 32.268 0 0 1 -1.745-31.333l81.114-168.514a30.482 30.482 0 0 1 55.3 0l81.114 168.514a32.268 32.268 0 0 1 -1.745 31.333 30.529 30.529 0 0 1 -25.904 14.5z" fill="#ffd071"/><path d="m508.766 466.169-51.073-106.1a219.852 219.852 0 0 1 -161.1 94.969l-5.361 11.136a32.268 32.268 0 0 0 1.745 31.333 30.529 30.529 0 0 0 25.91 14.493h162.226a30.529 30.529 0 0 0 25.908-14.5 32.268 32.268 0 0 0 1.745-31.331z" fill="#f9c05d"/><path d="m400 448a8 8 0 0 1 -8-8v-96a8 8 0 0 1 16 0v96a8 8 0 0 1 -8 8z" fill="#ed6464"/><circle cx="400" cy="472" fill="#ed6464" r="8"/><circle cx="392" cy="304" fill="#fff8cc" r="16"/><circle cx="424" cy="320" fill="#fff8cc" r="8"/><circle cx="176" cy="440" fill="#bac1dd" r="16"/><circle cx="208" cy="456" fill="#bac1dd" r="8"/><g fill="#e3f0f4"><circle cx="72" cy="264" r="16"/><circle cx="112" cy="272" r="8"/><circle cx="152" cy="32" r="16"/><circle cx="160" cy="64" r="8"/><circle cx="224" cy="32" r="16"/><circle cx="232" cy="64" r="8"/></g><circle cx="100" cy="436" fill="#bac1dd" r="12"/><circle cx="60" cy="132" fill="#c5e1a5" r="12"/></g></g></svg>